<svg width="30" height="27" viewBox="0 0 30 27" fill="none" xmlns="http://www.w3.org/2000/svg">
    <rect x="0.0703125" y="0.871582" width="26" height="26" rx="13" fill="#F7A400"/>
    <g clip-path="url(#clip0_1_2121)">
    <path d="M19.7681 22.395C19.8812 22.3883 19.9519 22.3817 19.9802 22.375C20.0085 22.3683 19.9661 22.3617 19.8529 22.355L14.1678 22.1283C13.9981 22.1217 13.8001 22.1183 13.5738 22.1183C13.3476 22.1183 13.1637 22.1217 13.0223 22.1283C12.8809 22.135 12.8102 22.1428 12.8102 22.1517C12.8102 22.1606 12.8667 22.1672 12.9799 22.1717L17.3074 22.3417H4.91884C4.69257 22.3417 4.49458 22.3444 4.32487 22.35C4.15517 22.3556 4.07031 22.3628 4.07031 22.3717C4.07031 22.3806 4.15517 22.3878 4.32487 22.3933C4.49458 22.3989 4.69257 22.4017 4.91884 22.4017H17.3074L12.9799 22.5717C12.8667 22.5761 12.8102 22.5828 12.8102 22.5917C12.8102 22.6006 12.8809 22.6083 13.0223 22.615C13.1637 22.6217 13.3476 22.625 13.5738 22.625C13.8001 22.625 13.9981 22.6217 14.1678 22.615L19.7681 22.395Z" fill="white"/>
    </g>
    <defs>
    <clipPath id="clip0_1_2121">
    <rect width="25.4558" height="1" fill="white" transform="matrix(1 0 0 -1 4.07031 22.8716)"/>
    </clipPath>
    </defs>
    </svg>
    