<svg width="61" height="61" viewBox="0 0 61 61" fill="none" xmlns="http://www.w3.org/2000/svg">
    <g clip-path="url(#clip0_1_2210)">
    <path d="M60.9102 30.4814C60.9102 25.0148 59.5768 19.9814 56.9102 15.3814C54.2435 10.7814 50.6102 7.14811 46.0102 4.48145C41.4102 1.81478 36.4435 0.481445 31.1102 0.481445C25.7768 0.481445 20.7768 1.74811 16.1102 4.28144H12.5102V0.481445H6.71016V12.6814C2.84349 18.0148 0.910156 23.9481 0.910156 30.4814C0.910156 35.9481 2.24349 40.9814 4.91016 45.5814C7.57682 50.1814 11.2102 53.8148 15.8102 56.4814C20.4102 59.1481 25.4435 60.4814 30.9102 60.4814C34.6435 60.4814 38.1768 59.8148 41.5102 58.4814C43.6435 59.8148 45.9102 60.4814 48.3102 60.4814C51.3768 60.4814 54.1102 59.4814 56.5102 57.4814L55.3102 55.8814C53.3102 57.6148 50.9768 58.4814 48.3102 58.4814C45.3768 58.4814 42.8768 57.4481 40.8102 55.3814C38.7435 53.3148 37.7102 50.8148 37.7102 47.8814C37.7102 44.9481 38.7435 42.4481 40.8102 40.3814C42.8768 38.3148 45.3768 37.2814 48.3102 37.2814C51.2435 37.2814 53.7435 38.3148 55.8102 40.3814C57.8768 42.4481 58.9102 44.9481 58.9102 47.8814C58.9102 50.4148 58.1768 52.6148 56.7102 54.4814L58.1102 55.8814C59.9768 53.4814 60.9102 50.8148 60.9102 47.8814C60.9102 45.4814 60.2435 43.2148 58.9102 41.0814C60.2435 37.7481 60.9102 34.2148 60.9102 30.4814ZM16.3102 10.0814H18.3102V23.6814H16.3102V10.0814ZM12.5102 6.28144H14.5102V23.6814H12.5102V6.28144ZM8.71016 2.48145H10.5102V23.6814H8.71016V2.48145ZM29.9102 58.4814C25.1102 58.3481 20.6768 57.0481 16.6102 54.5814C12.5435 52.1148 9.27682 48.8481 6.81016 44.7814C4.34349 40.7148 3.04349 36.2814 2.91016 31.4814H29.9102V58.4814ZM29.9102 29.4814H2.91016C3.04349 24.8148 4.31016 20.4148 6.71016 16.2814V25.6814H27.9102V15.8814H24.1102V12.0814H20.3102V8.28144H16.3102V6.48145C20.5768 3.94811 25.1102 2.61478 29.9102 2.48145V29.4814ZM20.3102 23.6814V14.0814H22.1102V23.6814H20.3102ZM24.1102 23.6814V17.8814H26.1102V23.6814H24.1102ZM58.9102 29.4814H50.7102L57.7102 22.4814C58.5102 24.7481 58.9102 27.0814 58.9102 29.4814ZM54.1102 14.6814L43.3102 25.4814L44.7102 26.8814L55.1102 16.2814C55.9102 17.6148 56.5768 18.9481 57.1102 20.2814L47.9102 29.4814H41.9102L43.1102 28.2814L41.9102 26.8814L39.3102 29.4814H33.3102L51.5102 11.2814C52.4435 12.3481 53.3102 13.4814 54.1102 14.6814ZM31.9102 2.48145C34.3102 2.48145 36.6435 2.88144 38.9102 3.68145L31.9102 10.6814V2.48145ZM31.9102 22.0814L43.7102 10.4814L42.3102 9.08144L31.9102 19.4814V13.4814L41.1102 4.28144C42.4435 4.81478 43.7768 5.48145 45.1102 6.28144L43.5102 7.88144L44.9102 9.28144L46.7102 7.28144C47.9102 8.08144 49.0435 8.94811 50.1102 9.88144L31.9102 28.0814V22.0814ZM48.3102 35.2814C46.0435 35.2814 43.9435 35.8481 42.0102 36.9814C40.0768 38.1148 38.5435 39.6481 37.4102 41.5814C36.2768 43.5148 35.7102 45.6148 35.7102 47.8814C35.7102 49.6148 36.0768 51.2814 36.8102 52.8814C37.5435 54.4814 38.5102 55.8814 39.7102 57.0814C37.1768 58.0148 34.5768 58.4814 31.9102 58.4814V31.4814H58.9102C58.9102 34.1481 58.4435 36.7481 57.5102 39.2814C56.3102 38.0814 54.9102 37.1148 53.3102 36.3814C51.7102 35.6481 50.0435 35.2814 48.3102 35.2814ZM12.9102 47.2814L24.5102 35.6814L25.7102 36.8814L14.1102 48.6814L12.9102 47.2814ZM23.1102 43.0814C22.3102 43.0814 21.6435 43.3481 21.1102 43.8814C20.5768 44.4148 20.3102 45.0814 20.3102 45.8814C20.3102 46.6814 20.5768 47.3814 21.1102 47.9814C21.6435 48.5814 22.3102 48.8814 23.1102 48.8814C23.9102 48.8814 24.6102 48.5814 25.2102 47.9814C25.8102 47.3814 26.1102 46.6814 26.1102 45.8814C26.1102 45.0814 25.8102 44.4148 25.2102 43.8814C24.6102 43.3481 23.9102 43.0814 23.1102 43.0814ZM23.1102 46.8814C22.8435 46.8814 22.6102 46.7814 22.4102 46.5814C22.2102 46.3814 22.1102 46.1481 22.1102 45.8814C22.1102 45.6148 22.2102 45.4148 22.4102 45.2814C22.6102 45.1481 22.8435 45.0814 23.1102 45.0814C23.3768 45.0814 23.6102 45.1481 23.8102 45.2814C24.0102 45.4148 24.1102 45.6148 24.1102 45.8814C24.1102 46.1481 24.0102 46.3814 23.8102 46.5814C23.6102 46.7814 23.3768 46.8814 23.1102 46.8814ZM15.5102 35.2814C14.7102 35.2814 14.0102 35.5814 13.4102 36.1814C12.8102 36.7814 12.5102 37.4814 12.5102 38.2814C12.5102 39.0814 12.8102 39.7481 13.4102 40.2814C14.0102 40.8148 14.7102 41.0814 15.5102 41.0814C16.3102 41.0814 16.9768 40.8148 17.5102 40.2814C18.0435 39.7481 18.3102 39.0814 18.3102 38.2814C18.3102 37.4814 18.0435 36.7814 17.5102 36.1814C16.9768 35.5814 16.3102 35.2814 15.5102 35.2814ZM15.5102 39.2814C15.2435 39.2814 15.0102 39.1814 14.8102 38.9814C14.6102 38.7814 14.5102 38.5481 14.5102 38.2814C14.5102 38.0148 14.6102 37.7814 14.8102 37.5814C15.0102 37.3814 15.2435 37.2814 15.5102 37.2814C15.7768 37.2814 15.9768 37.3814 16.1102 37.5814C16.2435 37.7814 16.3102 38.0148 16.3102 38.2814C16.3102 38.5481 16.2435 38.7814 16.1102 38.9814C15.9768 39.1814 15.7768 39.2814 15.5102 39.2814ZM48.3102 46.8814C47.7768 46.8814 47.3102 46.7148 46.9102 46.3814C46.5102 46.0481 46.3102 45.6148 46.3102 45.0814C46.3102 44.5481 46.5102 44.0814 46.9102 43.6814C47.3102 43.2814 47.7768 43.0814 48.3102 43.0814C48.8435 43.0814 49.3102 43.2814 49.7102 43.6814C50.1102 44.0814 50.3102 44.5481 50.3102 45.0814H52.1102C52.1102 44.1481 51.8435 43.3481 51.3102 42.6814C50.7768 42.0148 50.1102 41.5481 49.3102 41.2814V39.2814H47.3102V41.2814C46.5102 41.5481 45.8435 42.0148 45.3102 42.6814C44.7768 43.3481 44.5102 44.1814 44.5102 45.1814C44.5102 46.1814 44.8768 47.0481 45.6102 47.7814C46.3435 48.5148 47.2435 48.8814 48.3102 48.8814C48.8435 48.8814 49.3102 49.0814 49.7102 49.4814C50.1102 49.8814 50.3102 50.3481 50.3102 50.8814C50.3102 51.4148 50.1102 51.8481 49.7102 52.1814C49.3102 52.5148 48.8435 52.6814 48.3102 52.6814C47.7768 52.6814 47.3102 52.5148 46.9102 52.1814C46.5102 51.8481 46.3102 51.4148 46.3102 50.8814H44.5102C44.5102 51.6814 44.7768 52.4481 45.3102 53.1814C45.8435 53.9148 46.5102 54.3481 47.3102 54.4814V56.6814H49.3102V54.4814C50.1102 54.3481 50.7768 53.9148 51.3102 53.1814C51.8435 52.4481 52.1102 51.6148 52.1102 50.6814C52.1102 49.7481 51.7435 48.8814 51.0102 48.0814C50.2768 47.2814 49.3768 46.8814 48.3102 46.8814ZM55.1102 46.8814H57.1102V48.8814H55.1102V46.8814ZM39.7102 46.8814H41.5102V48.8814H39.7102V46.8814Z" fill="#F7A400"/>
    </g>
    <defs>
    <clipPath id="clip0_1_2210">
    <rect width="60.02" height="60" fill="white" transform="matrix(1 0 0 -1 0.900391 60.4814)"/>
    </clipPath>
    </defs>
    </svg>
    