<svg width="15" height="15" viewBox="0 0 15 15" fill="none" xmlns="http://www.w3.org/2000/svg">
    <path d="M7.50156 3.70703C9.47031 3.70703 11.0953 5.33203 11.0953 7.30078C11.0953 9.30078 9.47031 10.8945 7.50156 10.8945C5.50156 10.8945 3.90781 9.30078 3.90781 7.30078C3.90781 5.33203 5.50156 3.70703 7.50156 3.70703ZM7.50156 9.64453C8.78281 9.64453 9.81406 8.61328 9.81406 7.30078C9.81406 6.01953 8.78281 4.98828 7.50156 4.98828C6.18906 4.98828 5.15781 6.01953 5.15781 7.30078C5.15781 8.61328 6.22031 9.64453 7.50156 9.64453ZM12.0641 3.58203C12.0641 4.05078 11.6891 4.42578 11.2203 4.42578C10.7516 4.42578 10.3766 4.05078 10.3766 3.58203C10.3766 3.11328 10.7516 2.73828 11.2203 2.73828C11.6891 2.73828 12.0641 3.11328 12.0641 3.58203ZM14.4391 4.42578C14.5016 5.58203 14.5016 9.05078 14.4391 10.207C14.3766 11.332 14.1266 12.3008 13.3141 13.1445C12.5016 13.957 11.5016 14.207 10.3766 14.2695C9.22031 14.332 5.75156 14.332 4.59531 14.2695C3.47031 14.207 2.50156 13.957 1.65781 13.1445C0.845313 12.3008 0.595313 11.332 0.532813 10.207C0.470313 9.05078 0.470313 5.58203 0.532813 4.42578C0.595313 3.30078 0.845313 2.30078 1.65781 1.48828C2.50156 0.675781 3.47031 0.425781 4.59531 0.363281C5.75156 0.300781 9.22031 0.300781 10.3766 0.363281C11.5016 0.425781 12.5016 0.675781 13.3141 1.48828C14.1266 2.30078 14.3766 3.30078 14.4391 4.42578ZM12.9391 11.4258C13.3141 10.5195 13.2203 8.33203 13.2203 7.30078C13.2203 6.30078 13.3141 4.11328 12.9391 3.17578C12.6891 2.58203 12.2203 2.08203 11.6266 1.86328C10.6891 1.48828 8.50156 1.58203 7.50156 1.58203C6.47031 1.58203 4.28281 1.48828 3.37656 1.86328C2.75156 2.11328 2.28281 2.58203 2.03281 3.17578C1.65781 4.11328 1.75156 6.30078 1.75156 7.30078C1.75156 8.33203 1.65781 10.5195 2.03281 11.4258C2.28281 12.0508 2.75156 12.5195 3.37656 12.7695C4.28281 13.1445 6.47031 13.0508 7.50156 13.0508C8.50156 13.0508 10.6891 13.1445 11.6266 12.7695C12.2203 12.5195 12.7203 12.0508 12.9391 11.4258Z" fill="#9597C8"/>
    </svg>
    